<mxfile host="Electron" modified="2023-06-19T12:21:49.133Z" agent="Mozilla/5.0 (Windows NT 10.0; Win64; x64) AppleWebKit/537.36 (KHTML, like Gecko) draw.io/21.2.8 Chrome/112.0.5615.165 Electron/24.2.0 Safari/537.36" etag="DXRChhUxtXnIwHhMZ8sv" version="21.2.8" type="device">
  <diagram name="Page-1" id="VGrTwnrYPMH30GH3UlbM">
    <mxGraphModel dx="1050" dy="621" grid="0" gridSize="10" guides="1" tooltips="1" connect="1" arrows="1" fold="1" page="1" pageScale="1" pageWidth="827" pageHeight="1169" math="0" shadow="0">
      <root>
        <mxCell id="0" />
        <mxCell id="1" parent="0" />
        <mxCell id="Hrcb1GJSWxkqh3Z5VIh4-6" style="edgeStyle=orthogonalEdgeStyle;rounded=0;orthogonalLoop=1;jettySize=auto;html=1;exitX=1;exitY=0.75;exitDx=0;exitDy=0;entryX=0.5;entryY=0;entryDx=0;entryDy=0;" parent="1" source="Hrcb1GJSWxkqh3Z5VIh4-1" target="Hrcb1GJSWxkqh3Z5VIh4-2" edge="1">
          <mxGeometry relative="1" as="geometry" />
        </mxCell>
        <mxCell id="Hrcb1GJSWxkqh3Z5VIh4-12" style="edgeStyle=orthogonalEdgeStyle;rounded=0;orthogonalLoop=1;jettySize=auto;html=1;exitX=1;exitY=0.25;exitDx=0;exitDy=0;entryX=0.5;entryY=1;entryDx=0;entryDy=0;" parent="1" source="Hrcb1GJSWxkqh3Z5VIh4-1" target="Hrcb1GJSWxkqh3Z5VIh4-3" edge="1">
          <mxGeometry relative="1" as="geometry" />
        </mxCell>
        <mxCell id="Hrcb1GJSWxkqh3Z5VIh4-17" style="edgeStyle=orthogonalEdgeStyle;rounded=0;orthogonalLoop=1;jettySize=auto;html=1;exitX=0;exitY=0.25;exitDx=0;exitDy=0;entryX=0.5;entryY=1;entryDx=0;entryDy=0;" parent="1" source="Hrcb1GJSWxkqh3Z5VIh4-1" target="Hrcb1GJSWxkqh3Z5VIh4-5" edge="1">
          <mxGeometry relative="1" as="geometry" />
        </mxCell>
        <mxCell id="Hrcb1GJSWxkqh3Z5VIh4-19" style="edgeStyle=orthogonalEdgeStyle;rounded=0;orthogonalLoop=1;jettySize=auto;html=1;exitX=0;exitY=0.75;exitDx=0;exitDy=0;entryX=0.5;entryY=0;entryDx=0;entryDy=0;" parent="1" source="Hrcb1GJSWxkqh3Z5VIh4-1" target="Hrcb1GJSWxkqh3Z5VIh4-4" edge="1">
          <mxGeometry relative="1" as="geometry" />
        </mxCell>
        <mxCell id="Hrcb1GJSWxkqh3Z5VIh4-1" value="IDLE" style="rounded=0;whiteSpace=wrap;html=1;" parent="1" vertex="1">
          <mxGeometry x="357" y="183" width="120" height="60" as="geometry" />
        </mxCell>
        <mxCell id="Hrcb1GJSWxkqh3Z5VIh4-9" style="edgeStyle=orthogonalEdgeStyle;rounded=0;orthogonalLoop=1;jettySize=auto;html=1;exitX=0.5;exitY=1;exitDx=0;exitDy=0;entryX=0.75;entryY=1;entryDx=0;entryDy=0;" parent="1" source="Hrcb1GJSWxkqh3Z5VIh4-2" target="Hrcb1GJSWxkqh3Z5VIh4-1" edge="1">
          <mxGeometry relative="1" as="geometry" />
        </mxCell>
        <mxCell id="Hrcb1GJSWxkqh3Z5VIh4-2" value="UPDATE SUM OF SQUARES&lt;br&gt;" style="rounded=0;whiteSpace=wrap;html=1;" parent="1" vertex="1">
          <mxGeometry x="633" y="253" width="120" height="60" as="geometry" />
        </mxCell>
        <mxCell id="Hrcb1GJSWxkqh3Z5VIh4-14" style="edgeStyle=orthogonalEdgeStyle;rounded=0;orthogonalLoop=1;jettySize=auto;html=1;exitX=0.5;exitY=0;exitDx=0;exitDy=0;entryX=0.75;entryY=0;entryDx=0;entryDy=0;" parent="1" source="Hrcb1GJSWxkqh3Z5VIh4-3" target="Hrcb1GJSWxkqh3Z5VIh4-1" edge="1">
          <mxGeometry relative="1" as="geometry" />
        </mxCell>
        <mxCell id="Hrcb1GJSWxkqh3Z5VIh4-3" value="FIR FILTRATION" style="rounded=0;whiteSpace=wrap;html=1;" parent="1" vertex="1">
          <mxGeometry x="633" y="113" width="120" height="60" as="geometry" />
        </mxCell>
        <mxCell id="Hrcb1GJSWxkqh3Z5VIh4-21" style="edgeStyle=orthogonalEdgeStyle;rounded=0;orthogonalLoop=1;jettySize=auto;html=1;exitX=0.5;exitY=1;exitDx=0;exitDy=0;entryX=0.25;entryY=1;entryDx=0;entryDy=0;" parent="1" source="Hrcb1GJSWxkqh3Z5VIh4-4" target="Hrcb1GJSWxkqh3Z5VIh4-1" edge="1">
          <mxGeometry relative="1" as="geometry" />
        </mxCell>
        <mxCell id="Hrcb1GJSWxkqh3Z5VIh4-4" value="ADAPTATION COEF" style="rounded=0;whiteSpace=wrap;html=1;" parent="1" vertex="1">
          <mxGeometry x="103" y="253" width="120" height="60" as="geometry" />
        </mxCell>
        <mxCell id="Hrcb1GJSWxkqh3Z5VIh4-18" style="edgeStyle=orthogonalEdgeStyle;rounded=0;orthogonalLoop=1;jettySize=auto;html=1;exitX=0.5;exitY=0;exitDx=0;exitDy=0;entryX=0.25;entryY=0;entryDx=0;entryDy=0;" parent="1" source="Hrcb1GJSWxkqh3Z5VIh4-5" target="Hrcb1GJSWxkqh3Z5VIh4-1" edge="1">
          <mxGeometry relative="1" as="geometry" />
        </mxCell>
        <mxCell id="Hrcb1GJSWxkqh3Z5VIh4-5" value="ADAPTATION" style="rounded=0;whiteSpace=wrap;html=1;" parent="1" vertex="1">
          <mxGeometry x="103" y="113" width="120" height="60" as="geometry" />
        </mxCell>
        <mxCell id="Hrcb1GJSWxkqh3Z5VIh4-7" value="update_x_sum_of_squares" style="text;html=1;align=center;verticalAlign=middle;resizable=0;points=[];autosize=1;strokeColor=none;fillColor=none;" parent="1" vertex="1">
          <mxGeometry x="493" y="223" width="170" height="30" as="geometry" />
        </mxCell>
        <mxCell id="Hrcb1GJSWxkqh3Z5VIh4-13" value="start_fir_filtration" style="text;html=1;align=center;verticalAlign=middle;resizable=0;points=[];autosize=1;strokeColor=none;fillColor=none;" parent="1" vertex="1">
          <mxGeometry x="513" y="173" width="110" height="30" as="geometry" />
        </mxCell>
        <mxCell id="Hrcb1GJSWxkqh3Z5VIh4-15" value="x_fifo_last" style="text;html=1;align=center;verticalAlign=middle;resizable=0;points=[];autosize=1;strokeColor=none;fillColor=none;" parent="1" vertex="1">
          <mxGeometry x="538" y="63" width="80" height="30" as="geometry" />
        </mxCell>
        <mxCell id="Hrcb1GJSWxkqh3Z5VIh4-22" value="start_filter_adaptation" style="text;html=1;align=center;verticalAlign=middle;resizable=0;points=[];autosize=1;strokeColor=none;fillColor=none;" parent="1" vertex="1">
          <mxGeometry x="183" y="168" width="140" height="30" as="geometry" />
        </mxCell>
        <mxCell id="Hrcb1GJSWxkqh3Z5VIh4-23" value="calculate_adaptation_coef" style="text;html=1;align=center;verticalAlign=middle;resizable=0;points=[];autosize=1;strokeColor=none;fillColor=none;" parent="1" vertex="1">
          <mxGeometry x="197" y="223" width="160" height="30" as="geometry" />
        </mxCell>
        <mxCell id="Hrcb1GJSWxkqh3Z5VIh4-24" value="x_fifo_last" style="text;html=1;align=center;verticalAlign=middle;resizable=0;points=[];autosize=1;strokeColor=none;fillColor=none;" parent="1" vertex="1">
          <mxGeometry x="253" y="63" width="80" height="30" as="geometry" />
        </mxCell>
      </root>
    </mxGraphModel>
  </diagram>
</mxfile>
